<?xml version="1.0" encoding="UTF-8" standalone="no"?>
<svg
   shape-rendering="geometricPrecision"
   text-rendering="geometricPrecision"
   image-rendering="optimizeQuality"
   fill-rule="evenodd"
   clip-rule="evenodd"
   viewBox="0 0 512 299.283"
   version="1.1"
   id="svg1"
   sodipodi:docname="chevron-direction-bottom-icon.svg"
   inkscape:version="1.4.2 (f4327f4, 2025-05-13)"
   xmlns:inkscape="http://www.inkscape.org/namespaces/inkscape"
   xmlns:sodipodi="http://sodipodi.sourceforge.net/DTD/sodipodi-0.dtd"
   xmlns="http://www.w3.org/2000/svg"
   xmlns:svg="http://www.w3.org/2000/svg">
  <defs
     id="defs1" />
  <sodipodi:namedview
     id="namedview1"
     pagecolor="#ffffff"
     bordercolor="#000000"
     borderopacity="0.25"
     inkscape:showpageshadow="2"
     inkscape:pageopacity="0.0"
     inkscape:pagecheckerboard="0"
     inkscape:deskcolor="#d1d1d1"
     inkscape:zoom="2.5828397"
     inkscape:cx="255.91987"
     inkscape:cy="149.64149"
     inkscape:window-width="1920"
     inkscape:window-height="991"
     inkscape:window-x="-9"
     inkscape:window-y="-9"
     inkscape:window-maximized="1"
     inkscape:current-layer="svg1" />
  <path
     d="M75.334 12.591C10.57-24.337-20.852 28.186 15.131 64.566l200.866 209.613c33.472 33.471 46.534 33.471 80.006 0L496.869 64.566c35.983-36.38 4.561-88.903-60.203-51.975L256 109.944 75.334 12.591z"
     id="path1" />
  <path
     style="fill:#ffffff;fill-opacity:1;stroke-width:0.387171"
     d="M 475.67709,-0.7856844 C 460.05359,-0.33447503 445.49992,6.4553393 432.15016,14.045575 373.40392,45.684824 314.70328,77.415233 255.88432,108.91597 192.80389,75.003291 129.88423,40.790336 66.630421,7.2034934 52.680276,0.69198068 36.371753,-3.4558548 21.238791,1.2798469 8.9639994,4.9113276 -0.52997364,16.766451 -0.59991558,29.678752 -1.1312312,36.950359 0.64569995,44.187829 3.9641774,50.63905 8.0133233,59.428751 15.646895,65.651863 21.996634,72.697894 86.41298,140.24729 150.90115,207.72858 215.68679,274.9244 c 9.01194,8.89478 18.37014,18.16926 30.23573,23.12876 7.71003,3.31817 16.69046,2.25574 23.93625,-1.7405 14.96647,-7.92706 25.78839,-21.33785 37.55312,-33.13252 63.44711,-65.84937 126.80769,-131.78583 189.80289,-198.067571 7.31017,-7.05539 12.93007,-16.149736 14.91986,-26.181493 0.38008,-5.106768 0.68607,-10.346007 -0.24272,-15.405916 C 509.2506,12.646815 500.35156,3.811789 489.58063,0.92344436 485.07915,-0.40076772 480.35957,-0.8968292 475.67709,-0.7856844 Z"
     id="path2" />
</svg>
