<?xml version="1.0" encoding="UTF-8" standalone="no"?>
<svg
   height="235.452"
   width="261.728"
   viewBox="0 0 245.371 220.736"
   version="1.1"
   id="svg1"
   sodipodi:docname="itchio-logo-textless-black.svg"
   inkscape:version="1.4.2 (f4327f4, 2025-05-13)"
   xmlns:inkscape="http://www.inkscape.org/namespaces/inkscape"
   xmlns:sodipodi="http://sodipodi.sourceforge.net/DTD/sodipodi-0.dtd"
   xmlns="http://www.w3.org/2000/svg"
   xmlns:svg="http://www.w3.org/2000/svg">
  <defs
     id="defs1" />
  <sodipodi:namedview
     id="namedview1"
     pagecolor="#ffffff"
     bordercolor="#000000"
     borderopacity="0.25"
     inkscape:showpageshadow="2"
     inkscape:pageopacity="0.0"
     inkscape:pagecheckerboard="0"
     inkscape:deskcolor="#d1d1d1"
     inkscape:zoom="2"
     inkscape:cx="78.5"
     inkscape:cy="76.25"
     inkscape:window-width="1920"
     inkscape:window-height="991"
     inkscape:window-x="-9"
     inkscape:window-y="-9"
     inkscape:window-maximized="1"
     inkscape:current-layer="svg1" />
  <path
     d="M31.99 1.365C21.287 7.72.2 31.945 0 38.298v10.516C0 62.144 12.46 73.86 23.773 73.86c13.584 0 24.902-11.258 24.903-24.62 0 13.362 10.93 24.62 24.515 24.62 13.586 0 24.165-11.258 24.165-24.62 0 13.362 11.622 24.62 25.207 24.62h.246c13.586 0 25.208-11.258 25.208-24.62 0 13.362 10.58 24.62 24.164 24.62 13.585 0 24.515-11.258 24.515-24.62 0 13.362 11.32 24.62 24.903 24.62 11.313 0 23.773-11.714 23.773-25.046V38.298c-.2-6.354-21.287-30.58-31.988-36.933C180.118.197 157.056-.005 122.685 0c-34.37.003-81.228.54-90.697 1.365zm65.194 66.217a28.025 28.025 0 0 1-4.78 6.155c-5.128 5.014-12.157 8.122-19.906 8.122a28.482 28.482 0 0 1-19.948-8.126c-1.858-1.82-3.27-3.766-4.563-6.032l-.006.004c-1.292 2.27-3.092 4.215-4.954 6.037a28.5 28.5 0 0 1-19.948 8.12c-.934 0-1.906-.258-2.692-.528-1.092 11.372-1.553 22.24-1.716 30.164l-.002.045c-.02 4.024-.04 7.333-.06 11.93.21 23.86-2.363 77.334 10.52 90.473 19.964 4.655 56.7 6.775 93.555 6.788h.006c36.854-.013 73.59-2.133 93.554-6.788 12.883-13.14 10.31-66.614 10.52-90.474-.022-4.596-.04-7.905-.06-11.93l-.003-.045c-.162-7.926-.623-18.793-1.715-30.165-.786.27-1.757.528-2.692.528a28.5 28.5 0 0 1-19.948-8.12c-1.862-1.822-3.662-3.766-4.955-6.037l-.006-.004c-1.294 2.266-2.705 4.213-4.563 6.032a28.48 28.48 0 0 1-19.947 8.125c-7.748 0-14.778-3.11-19.906-8.123a28.025 28.025 0 0 1-4.78-6.155 27.99 27.99 0 0 1-4.736 6.155 28.49 28.49 0 0 1-19.95 8.124c-.27 0-.54-.012-.81-.02h-.007c-.27.008-.54.02-.813.02a28.49 28.49 0 0 1-19.95-8.123 27.992 27.992 0 0 1-4.736-6.155zm-20.486 26.49l-.002.01h.015c8.113.017 15.32 0 24.25 9.746 7.028-.737 14.372-1.105 21.722-1.094h.006c7.35-.01 14.694.357 21.723 1.094 8.93-9.747 16.137-9.73 24.25-9.746h.014l-.002-.01c3.833 0 19.166 0 29.85 30.007L210 165.244c8.504 30.624-2.723 31.373-16.727 31.4-20.768-.773-32.267-15.855-32.267-30.935-11.496 1.884-24.907 2.826-38.318 2.827h-.006c-13.412 0-26.823-.943-38.318-2.827 0 15.08-11.5 30.162-32.267 30.935-14.004-.027-25.23-.775-16.726-31.4L46.85 124.08C57.534 94.073 72.867 94.073 76.7 94.073zm45.985 23.582v.006c-.02.02-21.863 20.08-25.79 27.215l14.304-.573v12.474c0 .584 5.74.346 11.486.08h.006c5.744.266 11.485.504 11.485-.08v-12.474l14.304.573c-3.928-7.135-25.79-27.215-25.79-27.215v-.006l-.003.002z"
     color="#000"
     id="path1" />
  <path
     style="fill:#000000;stroke-width:0.304595"
     d="m 114.98464,235.12525 c -33.919118,-0.51839 -61.607063,-2.67592 -79.670946,-6.20821 -4.434866,-0.86721 -4.711444,-1.042 -6.559294,-4.14519 -4.324445,-7.26228 -6.852357,-19.57599 -8.218869,-40.03493 -0.513081,-7.68168 -0.727103,-59.37946 -0.29444,-71.12296 0.316647,-8.59453 0.881025,-18.240966 1.416751,-24.215304 l 0.191194,-2.132166 3.848343,-0.01948 c 5.909,-0.02992 10.581531,-1.473668 15.819722,-4.888093 2.865276,-1.867682 7.299301,-6.132136 8.729275,-8.39544 l 0.899573,-1.423808 1.207341,1.880701 c 1.738197,2.707624 6.014849,6.78354 8.969966,8.548933 9.808364,5.85954 22.181594,5.916075 31.681379,0.144756 3.999294,-2.429656 7.992775,-6.267251 10.008755,-9.618067 l 0.58811,-0.977508 1.63785,2.290149 c 4.08969,5.718479 10.02398,9.754632 17.30673,11.771021 2.01517,0.557943 3.15783,0.647299 8.27751,0.647299 5.13404,0 6.25943,-0.0885 8.29782,-0.652496 5.97129,-1.652194 9.71922,-3.778912 13.81056,-7.836626 1.68915,-1.675273 3.52495,-3.760242 4.07953,-4.633265 l 1.00834,-1.587315 1.20326,1.739612 c 7.69813,11.129575 22.27143,15.919891 35.10856,11.540362 6.00266,-2.047873 11.89016,-6.511621 15.07857,-11.432173 l 1.04814,-1.617562 0.9222,1.157899 c 4.31049,5.412186 7.71156,8.247361 12.76542,10.641396 4.0786,1.932054 7.42444,2.6889 11.962,2.705866 l 3.70194,0.01384 0.17759,1.370678 c 0.30688,2.368505 1.07959,14.474261 1.39986,21.930841 0.39817,9.27062 0.39654,60.59244 -0.002,69.29538 -0.96532,21.06878 -3.315,34.79283 -7.34592,42.90611 -1.2746,2.56546 -1.50166,2.92926 -2.7379,4.38655 -0.72359,0.85299 -1.17252,1.01859 -4.69502,1.73194 -16.33607,3.30825 -45.8212,5.69832 -75.37487,6.10989 -6.11475,0.0852 -13.58494,0.19735 -16.60044,0.24933 -3.01549,0.052 -11.85636,-0.003 -19.64638,-0.12196 z m -54.522517,-25.7023 c 8.032517,-1.21991 14.277453,-4.18471 19.621838,-9.31554 5.685788,-5.45858 9.351008,-13.04305 9.831864,-20.34514 l 0.187182,-2.84247 0.942354,0.17285 c 0.518292,0.0951 3.066903,0.44348 5.663576,0.77425 21.015213,2.67699 47.214083,2.67699 68.229303,0 2.59667,-0.33077 5.1456,-0.67924 5.66429,-0.77439 l 0.94306,-0.17298 0.19532,2.54094 c 0.95171,12.38146 9.00818,22.99493 21.06777,27.75437 5.04914,1.99269 8.23652,2.50154 15.53435,2.47996 9.2748,-0.0274 12.60803,-0.9349 15.64692,-4.25993 1.84331,-2.01689 2.64994,-4.03512 3.10346,-7.7651 0.54012,-4.44223 -0.45241,-12.4087 -2.44616,-19.63395 -8.2231,-29.79995 -12.75083,-45.73871 -13.75773,-48.43061 -4.85479,-12.9791 -12.41658,-22.94182 -20.5176,-27.03211 -3.19147,-1.61141 -5.49385,-2.12502 -10.24175,-2.28471 -11.20747,-0.376946 -17.04848,1.63962 -24.39053,8.42067 l -2.04062,1.88469 -2.9852,-0.30623 c -1.64186,-0.16842 -6.76181,-0.46808 -11.37765,-0.6659 -8.63764,-0.37018 -20.65136,-0.0859 -28.11592,0.6654 l -3.25864,0.32797 -2.42948,-2.28549 c -4.35519,-4.09705 -8.441705,-6.34341 -13.50643,-7.42451 -3.604578,-0.76942 -13.55407,-0.76342 -16.333823,0.01 -9.85542,2.74157 -18.409446,12.42669 -24.532639,27.77658 -0.883953,2.21594 -8.008376,27.17233 -13.651813,47.82143 -1.979676,7.24355 -2.655688,11.15589 -2.842069,16.44813 -0.195013,5.53733 0.07089,7.38958 1.459877,10.16918 1.875929,3.75407 5.313569,5.74047 11.092251,6.40953 3.529488,0.40865 10.170669,0.35011 13.244639,-0.11674 z"
     id="path2"
     transform="matrix(0.93750383,0,0,0.93750383,0,-5.7419572e-4)" />
  <path
     style="fill:#fa5c5c;fill-opacity:1;stroke-width:0.107691"
     d="M 23.486193,78.719022 C 18.127581,78.104235 12.741022,75.337311 8.3262447,70.931782 4.8235993,67.436473 2.1378472,62.97363 0.91396213,58.614986 0.06219546,55.581574 -0.05133248,54.172934 -0.05273422,46.620343 -0.05376085,41.088911 -0.03828877,40.572992 0.15079314,39.833689 1.4005672,34.947119 9.718513,23.888088 20.128263,13.272869 l 1.610494,-1.642282 H 124.94067 228.14258 v 32.899486 c 0,21.411342 -0.0369,32.899485 -0.10552,32.899485 -0.22204,0 -2.36824,-0.902 -3.47517,-1.46054 -5.07168,-2.559082 -9.28614,-6.710078 -11.85625,-11.677716 -1.40324,-2.712256 -2.34844,-5.714465 -2.71238,-8.61525 -0.19201,-1.530502 -0.26577,-1.835355 -0.26577,-1.098557 0,1.376065 -0.6836,4.612026 -1.40367,6.644624 -1.14976,3.245453 -2.97207,6.280422 -5.39922,8.992167 -3.26,3.642228 -8.01948,6.540966 -12.71703,7.745253 -9.16811,2.350384 -18.45327,-0.289438 -25.01015,-7.11053 -3.90724,-4.064676 -6.52391,-9.653354 -7.15456,-15.280648 -0.19606,-1.749443 -0.1887,-1.706639 -0.20612,-1.198417 -0.0263,0.766771 -0.32936,2.677604 -0.61711,3.890683 -1.37102,5.779896 -5.03047,11.289345 -9.9527,14.98425 -9.77525,7.337836 -22.61381,7.438135 -32.46873,0.253653 -5.71252,-4.164569 -9.73253,-10.659457 -10.66461,-17.23018 -0.0924,-0.651528 -0.20848,-1.378439 -0.25792,-1.615359 l -0.0899,-0.430762 -0.0129,0.453982 c -0.0238,0.834231 -0.33654,2.784368 -0.6543,4.079604 -0.93618,3.815943 -2.72286,7.44791 -5.152584,10.474207 -3.457918,4.306934 -8.308783,7.43443 -13.628777,8.786871 -2.276298,0.578678 -3.68685,0.747086 -6.261487,0.74757 -1.607783,3.01e-4 -2.619494,-0.05388 -3.499946,-0.187421 -4.842976,-0.734576 -9.132115,-2.601133 -12.815016,-5.576868 -1.208849,-0.976735 -3.25107,-3.036555 -4.180911,-4.216942 -3.084654,-3.915815 -4.976115,-8.56389 -5.562037,-13.668143 -0.09064,-0.789578 -0.143992,-1.031975 -0.152167,-0.6913 -0.0069,0.288548 -0.08857,1.03969 -0.181428,1.669205 -1.455682,9.868188 -8.569427,18.234 -18.192413,21.394399 -2.51513,0.826024 -4.733754,1.208922 -7.430653,1.282412 -0.947678,0.02582 -2.1064,0.003 -2.574938,-0.05078 z"
     id="path14"
     transform="matrix(0.93750383,0,0,0.93750383,0,-5.7419572e-4)" />
  <path
     style="fill:#fa5c5c;fill-opacity:1;stroke-width:0.107691"
     d="m 19.817857,135.93249 c 0.08605,-20.3129 0.153476,-23.50259 0.702857,-33.24948 0.316486,-5.614957 1.102008,-15.735635 1.231371,-15.864999 0.02074,-0.02074 0.46569,0.06987 0.98878,0.20136 0.880002,0.221203 1.116043,0.234425 3.15873,0.176935 3.77516,-0.106252 7.218615,-0.869853 10.769062,-2.388087 2.45093,-1.048061 5.43044,-2.885908 7.484498,-4.616651 2.308135,-1.944826 5.218973,-5.145474 6.457117,-7.099998 0.289586,-0.457139 0.554408,-0.831113 0.588493,-0.831053 0.03408,6.1e-5 0.20457,0.25448 0.378858,0.565376 0.174287,0.310897 0.627655,1.025644 1.007485,1.588327 3.445185,5.103737 8.819537,9.155905 14.883067,11.221571 2.697571,0.918985 5.355147,1.434464 8.153371,1.581477 6.58864,0.346155 12.8056,-1.30761 18.263524,-4.858257 3.470793,-2.257921 6.72695,-5.525036 8.90718,-8.937172 0.44337,-0.693885 0.83498,-1.263299 0.87024,-1.265365 0.0353,-0.0021 0.31907,0.413453 0.63067,0.923375 1.63935,2.682698 4.79853,6.142366 7.34794,8.046862 4.13892,3.091902 8.7996,5.048898 13.92617,5.847531 1.84984,0.288175 8.77499,0.293456 10.55368,0.008 4.42838,-0.710578 8.40509,-2.192257 12.0075,-4.47386 3.57168,-2.262139 7.12102,-5.854138 9.2614,-9.372702 0.32576,-0.535525 0.62128,-0.975781 0.65673,-0.978346 0.0354,-0.0026 0.39773,0.515125 0.80512,1.150425 5.27233,8.221916 14.30394,13.469492 23.92621,13.901678 7.53443,0.338411 14.23135,-1.731697 20.17489,-6.236337 2.65037,-2.008734 5.09839,-4.724203 6.89602,-7.649458 0.35938,-0.584806 0.66988,-1.063283 0.69002,-1.063283 0.0201,0 0.29746,0.399801 0.61628,0.888448 0.31883,0.488646 0.98667,1.397285 1.4841,2.019199 1.01987,1.275107 3.97018,4.267356 5.11122,5.183887 2.79521,2.245223 5.61516,3.855537 8.85755,5.058039 l 1.53459,0.569131 v 31.101587 31.1016 l -6.00375,-7.4e-4 -6.00375,-7.3e-4 -2.20703,-7.94145 c -1.56525,-5.63216 -2.41299,-8.48947 -2.91534,-9.82604 -5.64952,-15.03161 -13.53531,-24.97007 -22.60797,-28.49284 -2.79976,-1.08711 -4.73481,-1.44713 -8.18448,-1.52278 -8.82874,-0.19358 -14.04945,0.95424 -19.0074,4.17898 -2.10125,1.36668 -3.34201,2.38987 -5.59991,4.61791 l -1.61536,1.594 -0.80768,-0.092 c -5.63629,-0.64192 -14.52469,-1.06771 -22.28088,-1.06735 -7.26896,3.3e-4 -14.08208,0.29744 -20.55987,0.89656 l -2.6183,0.24216 -1.63548,-1.62015 c -5.45977,-5.40862 -10.613418,-7.92661 -17.519843,-8.5599 -2.091634,-0.1918 -6.894614,-0.26086 -8.72294,-0.12543 -4.804658,0.3559 -9.160172,2.14185 -13.350156,5.47413 -1.458264,1.15976 -4.283698,4.03166 -5.645675,5.73853 -1.364631,1.71019 -3.48076,4.84735 -4.640997,6.88027 -2.449479,4.29187 -5.199095,10.54434 -6.398648,14.55016 -0.404856,1.35199 -4.210142,14.94064 -4.210142,15.03439 0,0.0233 -5.814229,0.0423 -12.920508,0.0423 H 19.765964 Z"
     id="path15"
     transform="matrix(0.93750383,0,0,0.93750383,0,-5.7419572e-4)" />
  <path
     style="fill:#fa5c5c;fill-opacity:1;stroke-width:0.304595"
     d="M 20.742965,78.276254 C 10.477155,75.663644 1.6643119,65.817538 0.1635494,55.284007 -0.00352947,54.111316 -0.14294547,50.304261 -0.14626394,46.823885 -0.15152183,41.309492 -0.07553099,40.277512 0.44479614,38.797088 2.4621538,33.057344 13.679633,19.085868 23.910714,9.5700664 27.464192,6.2650203 32.204168,2.4269523 33.665919,1.671051 37.165884,-0.13885031 157.01462,-0.62568404 214.28264,0.9373736 c 15.00149,0.4094467 13.27517,0.008117 18.67771,4.3421254 10.34305,8.297368 25.6126,26.331229 28.24362,33.356687 0.61037,1.629818 0.63829,2.149491 0.51808,9.642134 -0.11367,7.084023 -0.19881,8.160468 -0.80711,10.203935 -3.56853,11.987821 -15.24606,21.079649 -26.0916,20.314268 -12.17541,-0.859232 -22.37896,-9.775799 -24.61188,-21.507568 l -0.37205,-1.954787 -0.53949,2.510533 c -1.77062,8.239687 -7.20116,15.028578 -14.86363,18.581491 -12.67639,5.877762 -27.44594,0.638288 -33.83899,-12.004333 -0.81117,-1.604129 -2.17442,-5.860089 -2.53672,-7.919472 l -0.21435,-1.21838 -0.38556,1.979868 c -1.01217,5.197641 -3.26557,9.276778 -7.41928,13.430492 -4.39469,4.394689 -8.8442,6.746824 -14.69798,7.769767 -9.99123,1.745963 -20.65211,-2.672965 -26.64416,-11.043987 -2.3161,-3.23565 -4.6012,-8.91301 -4.70865,-11.698708 -0.0157,-0.408115 -0.21567,0.199242 -0.44427,1.349682 -0.59995,3.019189 -1.25576,4.875778 -2.76416,7.825252 C 98.204463,69.93673 94.504619,73.55489 89.246358,76.177502 78.664411,81.455361 65.9534,78.701484 58.085392,69.42639 55.74096,66.662689 53.381832,62.039304 52.674626,58.822457 51.930653,55.43836 51.890519,55.397849 51.464004,57.600391 49.972112,65.304539 44.240373,72.583271 36.839562,76.171962 31.768456,78.630967 25.405337,79.46281 20.742965,78.276254 Z"
     id="path16"
     transform="matrix(0.93750383,0,0,0.93750383,0,-5.7419572e-4)" />
  <path
     style="fill:#fa5c5c;fill-opacity:1;stroke-width:0.304595"
     d="m 107.21747,235.2676 c -26.769204,-0.96133 -36.904377,-1.58455 -51.781166,-3.18407 -7.210297,-0.77524 -13.106671,-1.61668 -18.428002,-2.62978 -2.261618,-0.43057 -4.491318,-0.84929 -4.954889,-0.93049 -1.848118,-0.3237 -4.933807,-5.32158 -6.723522,-10.89008 -4.277843,-13.31 -5.680893,-30.7947 -5.670557,-70.66605 0.0071,-27.34446 0.510958,-43.9591 1.745853,-57.567884 l 0.221064,-2.436171 3.198248,0.0852 c 5.320803,0.141746 10.275349,-1.200078 15.365065,-4.161271 2.767063,-1.609875 7.997592,-6.438258 9.783471,-9.031275 0.631344,-0.916683 1.17755,-1.666697 1.21379,-1.666697 0.03624,0 0.664529,0.921438 1.396197,2.047641 2.61956,4.032095 7.374421,8.06498 11.960465,10.14439 6.718862,3.046478 14.827868,3.585795 21.809218,1.450494 2.544054,-0.778119 6.35421,-2.68757 8.68096,-4.350443 2.293229,-1.638917 5.787155,-5.245778 7.304555,-7.540661 0.63693,-0.963282 1.24145,-1.751176 1.34338,-1.750877 0.10193,3e-4 0.59575,0.651372 1.09738,1.446827 3.61885,5.738575 9.78538,10.239666 17.05905,12.451794 2.58184,0.785212 3.09583,0.834887 8.83326,0.85371 5.43487,0.01783 6.37114,-0.05537 8.68096,-0.678677 7.01087,-1.891898 13.40849,-6.429241 17.44818,-12.374645 1.39583,-2.054323 1.02645,-2.18486 3.41658,1.207392 3.51125,4.983426 10.02995,9.365417 16.60043,11.159119 2.23341,0.609707 3.27944,0.705078 7.61488,0.694282 4.2515,-0.01059 5.42471,-0.119818 7.61488,-0.708985 6.96337,-1.873182 13.33745,-6.345068 17.12057,-12.011356 l 1.3834,-2.072027 1.3713,1.91973 c 1.68302,2.356109 5.85868,6.391985 8.24144,7.965539 2.44639,1.615578 6.30777,3.380166 9.20171,4.205031 1.97949,0.564216 3.20231,0.694986 6.58103,0.703781 l 4.14979,0.0108 0.19141,2.262852 c 1.34652,15.918337 1.711,27.877277 1.70875,56.067107 -0.002,23.49663 -0.2381,34.76616 -0.92261,44.01399 -0.92007,12.4302 -2.72191,22.94296 -5.04898,29.45803 -1.05672,2.95849 -3.25068,7.1363 -4.46492,8.50224 -0.93597,1.05291 -1.17282,1.1419 -5.09365,1.91367 -13.42652,2.64289 -30.42842,4.27572 -59.24374,5.68966 -6.00175,0.2945 -54.01951,0.61312 -60.00523,0.39816 z M 62.746586,208.83256 c 7.537068,-1.72431 13.782745,-5.13993 18.338056,-10.02867 4.939542,-5.3011 7.822315,-11.66341 8.650893,-19.09261 0.177487,-1.59141 0.353665,-2.92443 0.391505,-2.96226 0.03784,-0.0378 0.883173,0.0618 1.87852,0.22148 10.11097,1.6218 25.91442,2.73509 38.81803,2.73457 11.65268,-4.7e-4 27.26365,-1.02369 36.70108,-2.40557 2.17642,-0.31868 4.0611,-0.51516 4.18819,-0.43661 0.12708,0.0785 0.23286,0.92285 0.23506,1.87625 0.002,0.95339 0.25995,2.96705 0.57278,4.4748 2.88544,13.90718 14.1034,23.93481 29.11115,26.0222 2.89063,0.40205 10.19377,0.40778 13.25998,0.0104 8.08305,-1.04756 11.62357,-4.92704 12.08283,-13.23961 0.34227,-6.19518 -0.655,-11.09686 -6.59995,-32.43937 -9.83746,-35.3167 -9.51778,-34.30574 -13.14744,-41.57723 -5.82542,-11.67038 -13.22728,-18.74612 -21.86929,-20.90578 -2.31594,-0.57876 -3.16506,-0.6281 -8.37637,-0.48677 -6.5149,0.17668 -8.99865,0.65815 -12.87923,2.49663 -2.98506,1.41423 -4.65312,2.60552 -7.57404,5.40919 l -2.47029,2.37113 -3.01242,-0.29909 c -11.54933,-1.14669 -28.73257,-1.14865 -40.12782,-0.005 l -3.00076,0.30127 -2.17736,-2.0211 c -4.3394,-4.02797 -8.265619,-6.31942 -12.783413,-7.46075 -3.118886,-0.78792 -12.138327,-1.13976 -15.264078,-0.59543 -9.022457,1.57119 -17.467834,9.40652 -23.490991,21.79412 -3.406869,7.00678 -3.146793,6.18043 -12.465586,39.6077 -4.87996,17.50481 -5.468077,19.79862 -6.266779,24.44211 -0.722815,4.20228 -0.863966,10.99538 -0.276932,13.32768 1.342676,5.33448 4.414844,7.96848 10.667985,9.14646 3.100952,0.58417 13.890455,0.4049 16.88669,-0.28057 z"
     id="path17"
     transform="matrix(0.93750383,0,0,0.93750383,0,-5.7419572e-4)" />
  <path
     style="fill:#fa5c5c;fill-opacity:1;stroke-width:0.304595"
     d="m 119.78201,167.58505 -1.14223,-0.0945 v -6.71491 -6.71491 l -7.08183,0.2078 c -3.89501,0.1143 -7.32171,0.27509 -7.61488,0.35733 -0.29317,0.0822 -0.53304,0.0183 -0.53304,-0.14209 0,-0.43418 2.55625,-3.85295 4.82313,-6.45053 2.57487,-2.9505 13.70855,-14.22476 18.7084,-18.94462 l 3.88515,-3.66757 2.8622,2.62731 c 4.363,4.00495 15.53141,15.19611 18.57877,18.61663 3.12794,3.51095 5.96946,7.19348 5.96946,7.73624 0,0.21119 -0.23217,0.30793 -0.53304,0.22212 -0.29317,-0.0836 -3.65133,-0.24668 -7.46258,-0.36237 l -6.92954,-0.21035 v 6.59561 c 0,5.34273 -0.0802,6.6264 -0.42244,6.75771 -0.45549,0.1748 -21.21774,0.33754 -23.10753,0.18113 z"
     id="path18"
     transform="matrix(0.93750383,0,0,0.93750383,0,-5.7419572e-4)" />
  <path
     style="fill:#fa5c5c;fill-opacity:1;stroke-width:0.0095186"
     d="m 127.64913,235.44549 c -3.05028,-0.009 -8.25419,-0.0555 -10.93686,-0.0982 -0.32197,-0.005 -1.05335,-0.009 -1.6253,-0.009 l -1.03991,-1.1e-4 v -3.66466 -3.66466 h 10.46094 10.46094 v 3.71544 3.71544 l -1.14938,0.006 c -1.00459,0.006 -4.2288,0.005 -6.17043,-1.7e-4 z"
     id="path19"
     transform="matrix(0.93750383,0,0,0.93750383,0,-5.7419572e-4)" />
  <path
     style="fill:#fa5c5c;fill-opacity:1;stroke-width:0.0095186"
     d="m 133.10329,232.6639 v -2.7898 h 10.46094 10.46093 v 2.64989 2.64989 l -0.18323,0.006 c -0.36218,0.012 -2.86867,0.0656 -4.48088,0.0959 -4.60623,0.0865 -9.33607,0.14238 -13.68298,0.16161 -0.62823,0.003 -1.46455,0.008 -1.85851,0.0106 l -0.71627,0.006 z"
     id="path20"
     transform="matrix(0.93750383,0,0,0.93750383,0,-5.7419572e-4)" />
  <path
     style="fill:#fa5c5c;fill-opacity:1;stroke-width:0.00390625"
     d="M 150.17773,1.0388047 V 0.02292195 l 0.30372,0.0022024 c 0.16704,0.0012113 0.62275,0.0031184 1.01269,0.0042381 1.21551,0.0034901 2.98273,0.01088375 6.04492,0.02529075 0.47051,0.0022136 0.93853,0.005093 1.04004,0.0063986 l 0.18457,0.0023738 v 0.995631 0.995631 h -4.29297 -4.29297 z"
     id="path21"
     transform="matrix(0.93750383,0,0,0.93750383,0,-5.7419572e-4)" />
  <path
     style="fill:#fa5c5c;fill-opacity:1;stroke-width:0.00390625"
     d="M 145.0293,1.2963417 V 0.01065216 l 0.94824,0.0025583 c 0.52153,0.001407 1.63555,0.0043023 2.47558,0.0064338 1.42115,0.0036061 2.72368,0.0077385 4.45215,0.01412474 l 0.70996,0.0026231 v 1.2728196 1.2728196 h -4.29296 -4.29297 z"
     id="path22"
     transform="matrix(0.93750383,0,0,0.93750383,0,-5.7419572e-4)" />
  <path
     style="fill:#fa5c5c;fill-opacity:1;stroke-width:0.00390625"
     d="M 140.6543,1.1481311 V 0.00329347 l 1.27246,0.00244166 c 0.69985,0.00134292 2.15752,0.0041032 3.23926,0.00613397 1.08173,0.0020308 2.44096,0.0048761 3.0205,0.0063229 l 1.05371,0.0026305 v 1.1360731 1.1360732 h -4.29296 -4.29297 z"
     id="path23"
     transform="matrix(0.93750383,0,0,0.93750383,0,-5.7419572e-4)" />
  <path
     style="fill:#fa5c5c;fill-opacity:1;stroke-width:0.00552427"
     d="M 172.19431,1.6960004 V 0.16582606 l 0.16711,0.002945 c 0.0919,0.00162 0.52135,0.006599 0.95432,0.0110664 2.90314,0.0299517 8.48847,0.10413848 10.58394,0.14058052 0.17439,0.003033 0.34406,0.005514 0.37703,0.005514 h 0.0599 V 1.7760534 3.2261747 h -6.07117 -6.07118 z"
     id="path24"
     transform="matrix(0.93750383,0,0,0.93750383,0,-5.7419572e-4)" />
  <path
     style="fill:#fa5c5c;fill-opacity:1;stroke-width:0.0220971"
     d="M 152.23788,5.6568542 V 0.02209709 l 0.25964,1.3713e-4 c 0.7947,4.1975e-4 8.72679,0.04659319 11.33028,0.06595468 6.12463,0.04554716 9.99926,0.08502081 15.28014,0.15566956 4.59365,0.0614549 7.78149,0.11488149 13.79963,0.23127494 1.55563,0.0300867 3.65872,0.0695169 4.67353,0.0876228 1.01481,0.0181059 2.15585,0.0395682 2.53564,0.0476941 l 0.69054,0.0147743 v 5.3331934 5.333193 h -24.2847 -24.2847 z"
     id="path25"
     transform="matrix(0.93750383,0,0,0.93750383,0,-5.7419572e-4)" />
  <path
     style="fill:#fa5c5c;fill-opacity:1;stroke-width:0.0078125"
     d="m 222.39453,3.6367187 c 0,-1.55295 0.003,-2.4726562 0.007,-2.4726562 0.0262,0 0.61212,0.026304 0.8754,0.0393 0.93281,0.046044 1.68691,0.1012272 2.29297,0.1677961 0.14342,0.015753 0.32645,0.024225 1.10547,0.051168 l 0.93359,0.03229 0.0859,0.051439 c 0.24202,0.1448643 0.54439,0.3338635 0.85938,0.5371548 0.10754,0.069407 0.23036,0.1403769 0.32812,0.1896027 0.46552,0.2343953 0.9782,0.5691638 1.58203,1.033031 0.31584,0.2426247 0.63296,0.4978943 1.64063,1.3206184 0.18691,0.1526087 0.49629,0.4036943 0.6875,0.557968 0.58055,0.468406 1.17187,0.9535402 1.17187,0.9614361 0,0.00193 -2.60332,0.00351 -5.78515,0.00351 h -5.78516 z"
     id="path26"
     transform="matrix(0.93750383,0,0,0.93750383,0,-5.7419572e-4)" />
</svg>
